<?xml version="1.0" encoding="UTF-8"?>
<svg width="1200pt" height="1200pt" version="1.1" viewBox="0 0 1200 1200" xmlns="http://www.w3.org/2000/svg">
 <g fill="#fff">
  <path d="m498.36 924c11.141 0 21.824-4.4258 29.699-12.301 7.875-7.8789 12.301-18.559 12.301-29.699v-454.08c0-15.008-8.0039-28.871-21-36.375s-29.004-7.5039-42 0-21 21.367-21 36.375v454.68c0.16016 11.035 4.6523 21.562 12.512 29.309 7.8594 7.75 18.453 12.09 29.488 12.09z"/>
  <path d="m701.64 924c11.137 0 21.82-4.4258 29.699-12.301 7.875-7.8789 12.301-18.559 12.301-29.699v-454.08c0-15.008-8.0039-28.871-21-36.375s-29.004-7.5039-42 0-21 21.367-21 36.375v454.68c0.15625 11.035 4.6523 21.562 12.512 29.309 7.8594 7.75 18.453 12.09 29.488 12.09z"/>
  <path d="m207.24 297.6h33.719v588h0.003907c0.0625 55.676 22.207 109.05 61.578 148.42 39.367 39.367 92.746 61.512 148.42 61.578h298.08c55.676-0.066406 109.05-22.211 148.42-61.578 39.371-39.371 61.516-92.746 61.578-148.42v-588h33.723c15.004 0 28.867-8.0078 36.371-21 7.5039-12.996 7.5039-29.008 0-42-7.5039-12.996-21.367-21-36.371-21h-211.2v-18.602c-0.03125-23.859-9.5234-46.734-26.395-63.605-16.871-16.871-39.746-26.363-63.605-26.395h-183.12c-23.859 0.03125-46.734 9.5234-63.605 26.395-16.871 16.871-26.363 39.746-26.395 63.605v18.602h-211.2c-15.004 0-28.867 8.0039-36.371 21-7.5039 12.992-7.5039 29.004 0 42 7.5039 12.992 21.367 21 36.371 21zm295.2-102.6h0.003906c0-3.3125 2.6836-6 6-6h183.12c1.5938 0 3.1172 0.63281 4.2422 1.7578 1.1289 1.125 1.7578 2.6523 1.7578 4.2422v18.602h-195.12zm-177.48 102.6h550.08v588c-0.03125 33.406-13.316 65.438-36.938 89.059-23.625 23.621-55.652 36.906-89.062 36.941h-298.08c-33.41-0.035156-65.438-13.32-89.062-36.941-23.621-23.621-36.906-55.652-36.938-89.059z"/>
 </g>
</svg>
